<mxfile host="app.diagrams.net" modified="2022-11-03T08:10:18.150Z" agent="5.0 (Windows NT 10.0; Win64; x64) AppleWebKit/537.36 (KHTML, like Gecko) Chrome/107.0.0.0 Safari/537.36" etag="Z2al6kgCgm7n2w8ha02p" version="20.5.1" type="github">
  <diagram id="RVg4EVnoidol94rYpOU9" name="第 1 页">
    <mxGraphModel dx="1038" dy="547" grid="1" gridSize="10" guides="1" tooltips="1" connect="1" arrows="1" fold="1" page="1" pageScale="1" pageWidth="827" pageHeight="1169" math="0" shadow="0">
      <root>
        <mxCell id="0" />
        <mxCell id="1" parent="0" />
        <mxCell id="31tbs3IESmnnOtS51sWp-5" style="edgeStyle=orthogonalEdgeStyle;rounded=0;orthogonalLoop=1;jettySize=auto;html=1;exitX=1;exitY=0.5;exitDx=0;exitDy=0;entryX=0;entryY=0.5;entryDx=0;entryDy=0;fontSize=18;" parent="1" source="31tbs3IESmnnOtS51sWp-1" target="31tbs3IESmnnOtS51sWp-3" edge="1">
          <mxGeometry relative="1" as="geometry" />
        </mxCell>
        <mxCell id="31tbs3IESmnnOtS51sWp-1" value="&lt;font style=&quot;font-size: 18px;&quot;&gt;cfg_devicevo&lt;/font&gt;" style="rounded=0;whiteSpace=wrap;html=1;" parent="1" vertex="1">
          <mxGeometry x="30" y="90" width="110" height="50" as="geometry" />
        </mxCell>
        <mxCell id="31tbs3IESmnnOtS51sWp-2" value="云平台" style="text;html=1;align=center;verticalAlign=middle;resizable=0;points=[];autosize=1;strokeColor=none;fillColor=none;fontSize=18;" parent="1" vertex="1">
          <mxGeometry x="45" y="10" width="80" height="40" as="geometry" />
        </mxCell>
        <mxCell id="31tbs3IESmnnOtS51sWp-3" value="&lt;font style=&quot;font-size: 18px;&quot;&gt;cfg_devicemanage&lt;/font&gt;" style="rounded=0;whiteSpace=wrap;html=1;" parent="1" vertex="1">
          <mxGeometry x="280" y="90" width="160" height="50" as="geometry" />
        </mxCell>
        <mxCell id="31tbs3IESmnnOtS51sWp-4" value="设备管理系统" style="text;html=1;align=center;verticalAlign=middle;resizable=0;points=[];autosize=1;strokeColor=none;fillColor=none;fontSize=18;" parent="1" vertex="1">
          <mxGeometry x="295" y="10" width="130" height="40" as="geometry" />
        </mxCell>
        <mxCell id="31tbs3IESmnnOtS51sWp-6" value="id&lt;br&gt;deviceid&lt;br&gt;devicename&lt;br&gt;devicedesc&lt;br&gt;devicetype&lt;br&gt;subdevicetype&lt;br&gt;templataid&lt;br&gt;keycode&lt;br&gt;updatetime&lt;br&gt;stationid&lt;br&gt;layer" style="text;html=1;align=center;verticalAlign=middle;resizable=0;points=[];autosize=1;strokeColor=#666666;fillColor=#f5f5f5;fontSize=18;fontColor=#333333;" parent="1" vertex="1">
          <mxGeometry x="15" y="180" width="140" height="250" as="geometry" />
        </mxCell>
        <mxCell id="31tbs3IESmnnOtS51sWp-7" value="device_id&lt;br&gt;orogin_device_id&lt;br&gt;deviceindex&lt;br&gt;device_name&lt;br&gt;devicecode&lt;br&gt;devicesn&lt;br&gt;description&lt;br&gt;device_type&lt;br&gt;subdevicetype&lt;br&gt;parentnodetype&lt;br&gt;parentnodecode&lt;br&gt;create_time&lt;br&gt;modify_time&lt;br&gt;islink&lt;br&gt;model_id&lt;br&gt;model&lt;br&gt;model_name&lt;br&gt;softwareversion&lt;br&gt;station_id&lt;br&gt;station_name&lt;br&gt;station_code" style="text;html=1;align=center;verticalAlign=middle;resizable=0;points=[];autosize=1;strokeColor=#666666;fillColor=#f5f5f5;fontSize=18;fontColor=#333333;" parent="1" vertex="1">
          <mxGeometry x="280" y="180" width="160" height="470" as="geometry" />
        </mxCell>
        <mxCell id="wqn6cUt2WGLQvfKCFbJV-4" value="" style="edgeStyle=orthogonalEdgeStyle;rounded=0;orthogonalLoop=1;jettySize=auto;html=1;" edge="1" parent="1" source="31tbs3IESmnnOtS51sWp-8" target="cQnDBLXF3Xn1QfssL1Yf-1">
          <mxGeometry relative="1" as="geometry" />
        </mxCell>
        <mxCell id="31tbs3IESmnnOtS51sWp-8" value="&lt;font style=&quot;font-size: 18px;&quot;&gt;获取设备管理场站表里的原始场站编码&lt;/font&gt;" style="rounded=0;whiteSpace=wrap;html=1;" parent="1" vertex="1">
          <mxGeometry x="476" y="10" width="330" height="40" as="geometry" />
        </mxCell>
        <mxCell id="wqn6cUt2WGLQvfKCFbJV-10" style="edgeStyle=orthogonalEdgeStyle;rounded=0;orthogonalLoop=1;jettySize=auto;html=1;exitX=0.5;exitY=1;exitDx=0;exitDy=0;entryX=0.5;entryY=0;entryDx=0;entryDy=0;fontSize=18;" edge="1" parent="1" source="cQnDBLXF3Xn1QfssL1Yf-1" target="wqn6cUt2WGLQvfKCFbJV-1">
          <mxGeometry relative="1" as="geometry" />
        </mxCell>
        <mxCell id="cQnDBLXF3Xn1QfssL1Yf-1" value="&lt;font style=&quot;font-size: 18px;&quot;&gt;根据原始场站编码列表查云平台的设备&lt;/font&gt;" style="rounded=0;whiteSpace=wrap;html=1;" parent="1" vertex="1">
          <mxGeometry x="476" y="95" width="330" height="40" as="geometry" />
        </mxCell>
        <mxCell id="wqn6cUt2WGLQvfKCFbJV-11" style="edgeStyle=orthogonalEdgeStyle;rounded=0;orthogonalLoop=1;jettySize=auto;html=1;exitX=0.5;exitY=1;exitDx=0;exitDy=0;entryX=0.5;entryY=0;entryDx=0;entryDy=0;fontSize=18;" edge="1" parent="1" source="wqn6cUt2WGLQvfKCFbJV-1" target="wqn6cUt2WGLQvfKCFbJV-7">
          <mxGeometry relative="1" as="geometry" />
        </mxCell>
        <mxCell id="wqn6cUt2WGLQvfKCFbJV-12" style="edgeStyle=orthogonalEdgeStyle;rounded=0;orthogonalLoop=1;jettySize=auto;html=1;exitX=0.5;exitY=1;exitDx=0;exitDy=0;entryX=0.5;entryY=0;entryDx=0;entryDy=0;fontSize=18;" edge="1" parent="1" source="wqn6cUt2WGLQvfKCFbJV-1" target="wqn6cUt2WGLQvfKCFbJV-8">
          <mxGeometry relative="1" as="geometry" />
        </mxCell>
        <mxCell id="wqn6cUt2WGLQvfKCFbJV-1" value="&lt;font style=&quot;font-size: 18px;&quot;&gt;处理获取到的设备信息&lt;/font&gt;" style="ellipse;whiteSpace=wrap;html=1;fontSize=18;" vertex="1" parent="1">
          <mxGeometry x="541" y="180" width="200" height="40" as="geometry" />
        </mxCell>
        <mxCell id="wqn6cUt2WGLQvfKCFbJV-16" style="edgeStyle=orthogonalEdgeStyle;rounded=0;orthogonalLoop=1;jettySize=auto;html=1;exitX=0.5;exitY=1;exitDx=0;exitDy=0;entryX=0;entryY=0.5;entryDx=0;entryDy=0;fontSize=18;" edge="1" parent="1" source="wqn6cUt2WGLQvfKCFbJV-7" target="wqn6cUt2WGLQvfKCFbJV-15">
          <mxGeometry relative="1" as="geometry" />
        </mxCell>
        <mxCell id="wqn6cUt2WGLQvfKCFbJV-17" value="不添加" style="edgeLabel;html=1;align=center;verticalAlign=middle;resizable=0;points=[];fontSize=18;" vertex="1" connectable="0" parent="wqn6cUt2WGLQvfKCFbJV-16">
          <mxGeometry x="-0.1576" relative="1" as="geometry">
            <mxPoint as="offset" />
          </mxGeometry>
        </mxCell>
        <mxCell id="wqn6cUt2WGLQvfKCFbJV-7" value="&lt;span style=&quot;font-size: 18px;&quot;&gt;已存在&lt;/span&gt;" style="rounded=0;whiteSpace=wrap;html=1;" vertex="1" parent="1">
          <mxGeometry x="520" y="270" width="80" height="40" as="geometry" />
        </mxCell>
        <mxCell id="wqn6cUt2WGLQvfKCFbJV-19" style="edgeStyle=orthogonalEdgeStyle;rounded=0;orthogonalLoop=1;jettySize=auto;html=1;exitX=0.5;exitY=1;exitDx=0;exitDy=0;fontSize=18;" edge="1" parent="1" source="wqn6cUt2WGLQvfKCFbJV-8" target="wqn6cUt2WGLQvfKCFbJV-18">
          <mxGeometry relative="1" as="geometry" />
        </mxCell>
        <mxCell id="wqn6cUt2WGLQvfKCFbJV-8" value="&lt;span style=&quot;font-size: 18px;&quot;&gt;不存在&lt;/span&gt;" style="rounded=0;whiteSpace=wrap;html=1;" vertex="1" parent="1">
          <mxGeometry x="680" y="270" width="80" height="40" as="geometry" />
        </mxCell>
        <mxCell id="wqn6cUt2WGLQvfKCFbJV-15" value="" style="ellipse;whiteSpace=wrap;html=1;aspect=fixed;fontSize=18;" vertex="1" parent="1">
          <mxGeometry x="625" y="480" width="40" height="40" as="geometry" />
        </mxCell>
        <mxCell id="wqn6cUt2WGLQvfKCFbJV-20" style="edgeStyle=orthogonalEdgeStyle;rounded=0;orthogonalLoop=1;jettySize=auto;html=1;exitX=0.5;exitY=1;exitDx=0;exitDy=0;entryX=1;entryY=0.5;entryDx=0;entryDy=0;fontSize=18;" edge="1" parent="1" source="wqn6cUt2WGLQvfKCFbJV-18" target="wqn6cUt2WGLQvfKCFbJV-15">
          <mxGeometry relative="1" as="geometry" />
        </mxCell>
        <mxCell id="wqn6cUt2WGLQvfKCFbJV-21" value="添加" style="edgeLabel;html=1;align=center;verticalAlign=middle;resizable=0;points=[];fontSize=18;" vertex="1" connectable="0" parent="wqn6cUt2WGLQvfKCFbJV-20">
          <mxGeometry x="-0.5176" y="-1" relative="1" as="geometry">
            <mxPoint as="offset" />
          </mxGeometry>
        </mxCell>
        <mxCell id="wqn6cUt2WGLQvfKCFbJV-18" value="&lt;span style=&quot;font-size: 18px;&quot;&gt;实体转换&lt;/span&gt;" style="rounded=0;whiteSpace=wrap;html=1;" vertex="1" parent="1">
          <mxGeometry x="680" y="360" width="80" height="30" as="geometry" />
        </mxCell>
      </root>
    </mxGraphModel>
  </diagram>
</mxfile>
